<svg xmlns="http://www.w3.org/2000/svg" width="163.549" height="185.34" viewBox="0 0 43.272 49.038"><path d="m75.777 137.11-.654-1.132.654-1.133a.29.29 0 0 0 0-.286l-.736-1.275a.29.29 0 0 0-.248-.143h-1.308l-.653-1.132a.29.29 0 0 0-.248-.143h-1.307l-.654-1.132a.29.29 0 0 0-.247-.143h-1.308l-.653-1.132a.29.29 0 0 0-.248-.143H66.86l-.654-1.132a.29.29 0 0 0-.248-.143h-1.307l-.654-1.132a.29.29 0 0 0-.247-.143h-1.308l-.653-1.133a.29.29 0 0 0-.248-.143h-1.307l-.654-1.132a.29.29 0 0 0-.248-.143h-1.307l-.653-1.132a.29.29 0 0 0-.248-.143h-1.308l-.653-1.132a.286.286 0 0 0-.496.286l.654 1.132-.654 1.132-.003.008q-.008.013-.013.029l-.01.024-.006.027-.004.028v.055q.001.013.004.027l.007.027a.3.3 0 0 0 .022.053l.003.008.654 1.132-.654 1.132-.003.008q-.008.012-.013.028l-.01.025-.006.026-.004.028v.055q.001.013.004.027l.007.027a.3.3 0 0 0 .022.053l.003.008.654 1.132-.571.989h-1.307a.286.286 0 1 0 0 .572h1.307l.571.99-.571.988h-1.307a.29.29 0 0 0-.248.143l-.736 1.275a.29.29 0 0 0 0 .286l.736 1.276.004.006a.3.3 0 0 0 .042.054l.007.006q.022.019.046.035l.019.01q.021.01.045.019l.018.006a.3.3 0 0 0 .063.008h1.476a.286.286 0 1 0 0-.572h-1.307l-.571-.99.57-.988h1.312a.3.3 0 0 0 .062-.009l.02-.006a.2.2 0 0 0 .044-.018l.018-.01a.3.3 0 0 0 .047-.035l.007-.006a.3.3 0 0 0 .041-.055l.005-.006.736-1.275a.29.29 0 0 0 0-.286l-.654-1.132.654-1.132a.29.29 0 0 0 0-.286l-.653-1.132.653-1.132a.29.29 0 0 0 0-.286l-.653-1.132.57-.99h1.143l.653 1.133.005.006q.017.03.042.054l.006.006q.021.019.047.035l.018.01q.022.01.045.019l.019.006a.3.3 0 0 0 .062.008h1.311l.654 1.132a.29.29 0 0 0 .248.143h1.307l.57.99-.57.988h-1.307a.29.29 0 0 0-.248.143l-.654 1.132h-1.142l-.57-.989.57-.989h1.307a.286.286 0 1 0 0-.572h-1.307l-.653-1.132a.286.286 0 1 0-.496.286l.654 1.132-.654 1.132a.29.29 0 0 0 0 .286l.654 1.132-.654 1.133a.29.29 0 0 0 0 .286l.654 1.132-.571.989H55.65a.286.286 0 1 0 0 .572h1.308l.57.989-.57.99H55.65a.29.29 0 0 0-.247.142l-.654 1.132h-1.142l-.654-1.132a.29.29 0 0 0-.247-.143h-1.308l-.57-.989.653-1.132a.29.29 0 0 0 0-.286l-.654-1.132.571-.99h1.308a.286.286 0 1 0 0-.571h-1.308l-.653-1.133a.29.29 0 0 0-.248-.143H49.19l-.654-1.132a.286.286 0 0 0-.495.286l.653 1.133-.57.989h-1.308a.29.29 0 0 0-.248.143l-.736 1.275a.286.286 0 1 0 .495.286l.654-1.132h1.307a.29.29 0 0 0 .248-.143l.654-1.133h1.142l.57.99-.57.989h-1.308a.29.29 0 0 0-.247.143l-.654 1.132h-1.307a.286.286 0 1 0 0 .572h1.472a.29.29 0 0 0 .248-.143l.654-1.132h1.142l.57.989-.653 1.132-.004.008q-.007.013-.012.028l-.01.025-.006.027-.004.027v.055q.001.013.004.027l.007.027a.3.3 0 0 0 .021.053l.004.008.654 1.132-.571.989h-1.308a.29.29 0 0 0-.247.143l-.654 1.132h-1.142l-.654-1.132a.29.29 0 0 0-.247-.143h-1.473a.286.286 0 1 0 0 .572h1.307l.571.99-.653 1.131-.004.008-.013.029-.009.024-.006.027-.005.028v.054l.005.028.006.027.01.024q.005.015.012.028l.004.008.736 1.275a.29.29 0 0 0 .248.143h1.472a.29.29 0 0 0 .248-.143l.736-1.275a.286.286 0 1 0-.495-.286l-.654 1.132h-1.142l-.571-.989.571-.989h1.307a.29.29 0 0 0 .248-.143l.654-1.132h1.142l.57.99-.653 1.131-.004.008q-.007.013-.012.029l-.01.024-.006.027-.004.028v.054q.001.013.004.028l.007.027a.3.3 0 0 0 .021.052l.004.008.654 1.132-.571.99h-1.308a.29.29 0 0 0-.247.143l-.654 1.132h-1.142l-.654-1.132a.286.286 0 1 0-.495.286l.653 1.132-.57.989h-1.143l-.57-.99.653-1.131a.286.286 0 1 0-.496-.286l-.653 1.132h-1.142l-.571-.99.653-1.132a.286.286 0 1 0-.495-.286l-.654 1.132h-1.142l-.57-.989.653-1.132.003-.008q.008-.013.013-.028l.01-.025.005-.027.005-.027v-.055l-.005-.027q-.002-.014-.006-.027l-.009-.024-.013-.029-.003-.008-.654-1.132.654-1.132.003-.008q.008-.014.013-.029l.01-.024.005-.027.005-.028v-.054l-.005-.027q-.002-.013-.006-.028l-.009-.024-.013-.029-.003-.008-.654-1.132.571-.989h1.142l.571.99-.653 1.131-.004.008q-.007.013-.013.029l-.009.024q-.004.014-.006.027l-.005.027v.055l.005.028.006.027a.3.3 0 0 0 .022.052l.004.008.653 1.133-.653 1.132a.286.286 0 1 0 .495.286l.654-1.132h1.142l.57.989-.653 1.132a.286.286 0 1 0 .496.286l.736-1.275.004-.008.012-.028.01-.025.006-.027.005-.027v-.055l-.005-.028-.006-.027a.3.3 0 0 0-.022-.052l-.004-.008-.736-1.275a.29.29 0 0 0-.248-.143h-1.307l-.571-.99.57-.989h1.308a.286.286 0 1 0 0-.572h-1.307l-.571-.989.653-1.132a.286.286 0 1 0-.495-.286l-.654 1.132h-1.142l-.57-.99.653-1.131a.286.286 0 1 0-.496-.286l-.736 1.275a.29.29 0 0 0 0 .286l.654 1.132-.654 1.132a.29.29 0 0 0 0 .286l.654 1.132-.571.99h-1.143l-.653-1.133a.29.29 0 0 0-.248-.143h-1.472a.29.29 0 0 0-.248.143l-.736 1.276a.286.286 0 1 0 .495.286l.654-1.133h1.142l.654 1.133a.29.29 0 0 0 .247.143h1.308l.57.989-.57.989h-1.308a.29.29 0 0 0-.247.143l-.654 1.132h-1.307a.286.286 0 1 0 0 .572h1.472l.009-.001.032-.004.025-.004.027-.008.025-.01.025-.015.023-.014.022-.019.02-.018q.008-.01.016-.02l.018-.026.006-.008.653-1.132h1.142l.654 1.132.005.006a.3.3 0 0 0 .041.055l.007.006q.021.02.047.035l.018.01q.022.01.045.019l.018.006a.3.3 0 0 0 .063.008h1.311l.654 1.132a.29.29 0 0 0 .247.143h1.308l.57.99-.653 1.131a.286.286 0 1 0 .496.286l.653-1.132h1.311a.3.3 0 0 0 .063-.008l.018-.006a.2.2 0 0 0 .045-.019l.019-.01a.3.3 0 0 0 .046-.035l.007-.006a.3.3 0 0 0 .042-.054q.001-.003.004-.006l.654-1.132h1.307a.29.29 0 0 0 .248-.143l.653-1.133h1.311a.3.3 0 0 0 .063-.008l.019-.006a.2.2 0 0 0 .044-.018l.019-.01a.3.3 0 0 0 .046-.036l.007-.006a.3.3 0 0 0 .042-.054l.004-.006.736-1.275a.29.29 0 0 0 0-.286l-.653-1.132.653-1.132a.29.29 0 0 0 0-.286l-.653-1.132.57-.99h1.143l.654 1.133q.001.003.004.006a.3.3 0 0 0 .042.054l.007.006q.022.019.046.035l.018.01q.023.01.045.019l.019.006a.3.3 0 0 0 .063.008h1.31l.654 1.132a.29.29 0 0 0 .248.143h1.307l.654 1.132q.001.003.004.006a.3.3 0 0 0 .042.055l.007.006q.022.019.046.034l.019.01q.021.011.044.02l.02.005a.3.3 0 0 0 .062.008h1.311l.653 1.133a.29.29 0 0 0 .248.143h1.472a.29.29 0 0 0 .248-.143l.654-1.132h1.142l.654 1.132a.286.286 0 1 0 .495-.286l-.653-1.132.57-.99h1.308a.29.29 0 0 0 .248-.143l.736-1.275a.286.286 0 1 0-.496-.286l-.653 1.132H64.65l-.571-.989.653-1.132a.29.29 0 0 0 0-.286l-.736-1.275a.29.29 0 0 0-.248-.143h-1.307l-.571-.99.654-1.131.003-.008q.008-.013.013-.029l.01-.024.006-.027.004-.028v-.054q-.001-.013-.004-.028l-.007-.027a.3.3 0 0 0-.022-.053l-.003-.008-.654-1.132.571-.989h1.142l.654 1.132a.29.29 0 0 0 .247.143h1.473a.286.286 0 1 0 0-.572H64.65l-.654-1.132a.29.29 0 0 0-.248-.143h-1.472a.29.29 0 0 0-.248.143l-.654 1.132h-1.307a.286.286 0 1 0 0 .572h1.307l.571.99-.653 1.132a.29.29 0 0 0 0 .286l.653 1.132-.57.989h-1.143l-.653-1.132a.286.286 0 1 0-.496.286l.654 1.132-.571.989H57.86a.286.286 0 1 0 0 .572h1.307l.653 1.132a.286.286 0 1 0 .496-.286l-.654-1.132.571-.99h1.308a.29.29 0 0 0 .247-.142l.654-1.132h1.142l.571.989-.654 1.132-.003.008q-.008.012-.013.028l-.01.025-.006.026-.004.028v.055q.001.013.004.027l.007.027a.3.3 0 0 0 .022.053l.003.008.654 1.132-.571.99h-1.142l-.571-.99.654-1.132a.286.286 0 1 0-.496-.286l-.736 1.275a.29.29 0 0 0 0 .286l.653 1.132-.57.99h-1.143l-.653-1.133a.29.29 0 0 0-.248-.143h-1.307l-.654-1.132a.29.29 0 0 0-.248-.143h-1.307l-.571-.989.571-.99h1.307a.29.29 0 0 0 .248-.142l.736-1.275.004-.008q.007-.013.013-.029l.009-.024q.004-.013.006-.027l.005-.027v-.055l-.005-.027q-.002-.014-.006-.027l-.01-.025q-.004-.014-.012-.028l-.004-.008-.653-1.132.57-.99h1.143l.653 1.133a.286.286 0 1 0 .496-.286l-.736-1.276a.29.29 0 0 0-.248-.143h-1.307l-.571-.989.57-.989h1.318l.03-.005q.013 0 .026-.004l.027-.008.025-.01.048-.027.021-.018a.3.3 0 0 0 .037-.04l.018-.024q.003-.002.005-.008l.654-1.133h1.307a.29.29 0 0 0 .248-.143l.654-1.132h1.142l.653 1.132a.29.29 0 0 0 .248.143h1.307l.654 1.133.005.006q.018.03.041.054l.007.006q.021.019.047.035l.018.01q.022.011.045.019l.018.006a.3.3 0 0 0 .063.008h1.311l.654 1.132a.29.29 0 0 0 .247.143h1.308l.57.99-.653 1.131a.29.29 0 0 0 0 .287l.736 1.275.006.008.018.025q.007.01.017.02l.02.019.022.018q.01.008.023.015.011.007.024.012l.026.01.026.008.026.004.031.004.01.001h1.306l.654 1.132a.286.286 0 1 0 .496-.286l-.737-1.275a.29.29 0 0 0-.247-.143h-1.308l-.57-.989.57-.989h1.142l.654 1.132a.29.29 0 0 0 .248.143h1.307l.571.99-.654 1.131-.003.008q-.008.013-.013.029l-.01.024-.005.027-.005.027v.055l.005.028.006.027.009.024.013.028.003.008.654 1.132-.654 1.133-.003.008q-.008.014-.013.028l-.01.024-.005.028-.005.027v.055l.005.027.006.027.009.024.013.03.003.007.654 1.132-.654 1.132-.003.008q-.008.013-.013.029l-.01.024-.005.027-.005.027v.055l.005.028.006.027.009.024.013.028.003.008.654 1.132-.654 1.133-.003.008-.022.052q-.004.014-.006.027l-.005.028v.054l.005.028.006.027.009.024.013.028.003.008.654 1.132-.571.99h-1.142l-.571-.99.654-1.132a.29.29 0 0 0 0-.286l-.654-1.132.654-1.132a.29.29 0 0 0 0-.286l-.654-1.132.654-1.132a.29.29 0 0 0 0-.286l-.737-1.276a.29.29 0 0 0-.247-.143h-1.308l-.653-1.132a.29.29 0 0 0-.248-.143h-1.307l-.571-.989.653-1.132a.29.29 0 0 0 0-.286l-.736-1.275a.286.286 0 1 0-.495.286l.653 1.132-.57.99h-1.143l-.571-.99.654-1.132a.286.286 0 1 0-.496-.286l-.654 1.132H64.65l-.653-1.132a.286.286 0 1 0-.496.286l.737 1.275a.29.29 0 0 0 .247.143h1.307l.572.99-.654 1.131a.286.286 0 1 0 .495.286l.654-1.132h1.142l.571.99-.653 1.132-.004.008q-.008.012-.013.028l-.01.024-.005.027-.005.028v.054q.001.013.005.028l.006.027a.3.3 0 0 0 .022.053l.004.008.653 1.132-.57.989h-1.308a.29.29 0 0 0-.248.143l-.736 1.275a.286.286 0 1 0 .495.286l.654-1.132h1.311a.3.3 0 0 0 .063-.008l.018-.006a.2.2 0 0 0 .045-.019l.019-.01a.3.3 0 0 0 .046-.035l.007-.006a.3.3 0 0 0 .042-.054q.001-.003.004-.006l.736-1.276a.29.29 0 0 0 0-.286l-.653-1.132.57-.989h1.143l.653 1.132.005.006a.3.3 0 0 0 .042.054l.007.006q.021.02.046.036l.018.01q.023.01.045.018l.019.006a.3.3 0 0 0 .063.008h1.31l.571.99-.653 1.132-.004.008q-.007.013-.013.028l-.009.025q-.004.013-.006.027l-.005.027v.055l.005.027q.002.014.006.027a.3.3 0 0 0 .022.053l.004.008.653 1.132-.57.99H71.11a.286.286 0 1 0 0 .571h1.307l.571.99-.653 1.132-.004.008-.022.052q-.004.014-.006.027l-.005.028v.054l.005.028.006.027.01.024q.005.015.012.028l.004.008.736 1.275a.29.29 0 0 0 .248.143h1.307l.571.99-.654 1.132-.003.008-.022.052q-.005.014-.006.027l-.005.028v.054l.005.028.006.027.009.024.013.029.003.008.654 1.132-.571.989h-1.142l-.654-1.132a.29.29 0 0 0-.247-.143H71.11a.286.286 0 1 0 0 .572h1.307l.654 1.132a.29.29 0 0 0 .248.143h1.307l.571.989-.654 1.132-.003.008q-.008.014-.013.029l-.01.024-.005.027-.005.027v.055l.005.027a.2.2 0 0 0 .015.052l.013.028.003.008.654 1.133-.654 1.132-.003.008-.022.052q-.004.014-.006.027l-.005.028v.054l.005.028.006.027.009.024.013.028.003.008.654 1.133-.571.989h-1.142l-.571-.99.654-1.132a.286.286 0 1 0-.496-.286l-.736 1.276-.004.008q-.007.012-.013.028l-.009.024q-.004.014-.006.027l-.005.028v.054l.005.028.006.027a.3.3 0 0 0 .022.052l.004.008.653 1.133-.57.989H71.11a.29.29 0 0 0-.247.143l-.654 1.132h-1.307a.29.29 0 0 0-.248.143L68 162.456h-1.307a.29.29 0 0 0-.248.143l-.653 1.132H64.65l-.571-.99.57-.988h1.308a.29.29 0 0 0 .248-.143l.653-1.132h1.311a.3.3 0 0 0 .063-.009l.019-.006a.2.2 0 0 0 .044-.018l.019-.01a.3.3 0 0 0 .046-.036l.007-.006a.3.3 0 0 0 .042-.054q.001-.003.004-.006l.736-1.275a.29.29 0 0 0 0-.286l-.736-1.275a.286.286 0 1 0-.495.286l.653 1.132-.57.99h-1.308a.29.29 0 0 0-.247.142l-.654 1.142h-1.142l-.571-.989.654-1.132a.29.29 0 0 0 0-.286l-.737-1.275a.29.29 0 0 0-.247-.143h-1.308l-.57-.99.57-.988h1.142l.654 1.132a.286.286 0 1 0 .496-.286l-.737-1.276a.29.29 0 0 0-.247-.143h-1.473a.29.29 0 0 0-.248.143l-.653 1.133h-1.142l-.654-1.133a.29.29 0 0 0-.248-.143H57.86a.286.286 0 1 0 0 .573h1.307l.571.989-.653 1.132a.286.286 0 1 0 .495.286l.654-1.132h1.142l.653 1.132.005.006a.3.3 0 0 0 .042.054l.007.006q.022.019.046.035l.018.01q.023.011.045.019l.019.006a.3.3 0 0 0 .063.008h1.31l.571.99-.653 1.131-.004.008-.013.029-.009.024q-.004.013-.006.027l-.005.028v.054l.005.028.006.027a.3.3 0 0 0 .022.052l.004.008.653 1.133-.653 1.132-.004.008-.022.052q-.004.014-.006.027l-.005.028v.054l.005.028.006.027a.3.3 0 0 0 .022.053l.004.008.653 1.132-.57.99h-1.308a.29.29 0 0 0-.248.142l-.653 1.132h-1.142l-.571-.989.653-1.132a.29.29 0 0 0 0-.286l-.653-1.132.57-.99h1.143l.57.99-.653 1.132a.286.286 0 1 0 .496.286l.736-1.275.004-.008.013-.029.009-.024.006-.027.004-.028.001-.027v-.027l-.005-.028-.006-.027a.3.3 0 0 0-.023-.052l-.003-.008-.654-1.132.654-1.133.003-.008q.008-.013.013-.028l.01-.024.006-.027.004-.028.001-.027v-.027l-.005-.028a.2.2 0 0 0-.016-.051l-.013-.029-.003-.008-.736-1.275a.286.286 0 1 0-.496.286l.654 1.132-.571.99h-1.307a.29.29 0 0 0-.248.142l-.736 1.276-.004.008q-.008.014-.013.028l-.009.024q-.004.013-.006.028l-.005.027v.055l.005.027a.2.2 0 0 0 .015.051l.013.029.004.008.653 1.132-.653 1.132-.004.008-.022.053q-.004.014-.006.027l-.005.027v.055l.005.028q.002.013.006.026l.009.025.013.028.004.008.653 1.132-.57.99H57.86a.29.29 0 0 0-.248.142l-.653 1.132H55.65a.29.29 0 0 0-.247.143l-.654 1.133h-1.142l-.571-.99.653-1.132.004-.008.022-.053.007-.027.004-.027v-.055q-.001-.014-.004-.027l-.007-.027a.3.3 0 0 0-.022-.053l-.004-.008-.653-1.132.653-1.132a.286.286 0 1 0-.495-.286l-.736 1.275a.29.29 0 0 0 0 .286l.653 1.132-.57.99h-1.143l-.653-1.133a.29.29 0 0 0-.248-.143H49.19l-.571-.989.57-.989h1.143l.653 1.132a.286.286 0 1 0 .496-.286l-.654-1.132.571-.99h1.308a.29.29 0 0 0 .247-.142l.737-1.275a.286.286 0 1 0-.496-.286l-.654 1.132H51.4l-.653-1.132a.286.286 0 1 0-.496.286l.654 1.132-.571.99h-1.308a.29.29 0 0 0-.247.142l-.654 1.132h-1.142l-.571-.989.654-1.132a.286.286 0 1 0-.496-.286l-.654 1.132h-1.142l-.653-1.132a.29.29 0 0 0-.248-.143h-1.307l-.571-.99.653-1.131a.29.29 0 0 0 0-.287l-.653-1.132.57-.989h1.143l.653 1.132.005.006q.018.03.042.055l.007.006q.021.018.046.035l.019.01q.021.012.044.018l.02.006a.3.3 0 0 0 .062.008l.004.001h1.472a.286.286 0 1 0 0-.572h-1.307l-.572-.99.572-.989h1.31a.3.3 0 0 0 .063-.008l.019-.006a.2.2 0 0 0 .044-.019l.019-.01a.3.3 0 0 0 .046-.035l.007-.006a.3.3 0 0 0 .042-.054l.004-.006.654-1.132h1.307a.29.29 0 0 0 .248-.143l.736-1.275.004-.008.013-.029.009-.024q.004-.013.006-.028l.005-.027v-.054l-.005-.028a.2.2 0 0 0-.015-.051l-.013-.029-.004-.008-.653-1.132.57-.99h1.143l.653 1.133a.29.29 0 0 0 .248.143h1.473a.29.29 0 0 0 .247-.143l.737-1.275.003-.008q.007-.013.013-.028l.01-.025.006-.027.004-.027v-.055q-.001-.014-.004-.027l-.007-.027a.3.3 0 0 0-.022-.053l-.003-.008-.654-1.132.654-1.132.003-.008.022-.053.007-.027.004-.027v-.055q-.001-.014-.004-.027l-.007-.027a.3.3 0 0 0-.022-.053l-.003-.008-.737-1.275a.29.29 0 0 0-.247-.143h-1.308l-.57-.989.653-1.132a.29.29 0 0 0 0-.286l-.654-1.132.571-.99h1.308a.29.29 0 0 0 .247-.142l.654-1.133h1.142l.654 1.133a.29.29 0 0 0 .247.143h1.308l.57.989-.653 1.132a.29.29 0 0 0 0 .286l.654 1.132-.571.99H55.65a.29.29 0 0 0-.247.142l-.737 1.275-.003.008q-.008.013-.013.029l-.01.024-.006.027-.004.027v.055q.001.014.004.027l.007.027a.3.3 0 0 0 .022.053l.003.008.654 1.132-.654 1.132-.003.008q-.008.014-.013.029l-.01.024-.006.027-.004.027v.055q.001.014.004.027l.007.027a.3.3 0 0 0 .022.053l.003.008.654 1.132-.571.99h-1.307a.29.29 0 0 0-.248.142l-.654 1.132H51.4l-.653-1.132a.286.286 0 0 0-.496.286l.654 1.132-.571.99h-1.308a.29.29 0 0 0-.247.143l-.654 1.132h-1.307a.286.286 0 1 0 0 .572h1.307l.571.989-.57.989h-1.308a.29.29 0 0 0-.248.143l-.654 1.132h-1.142l-.653-1.132a.286.286 0 1 0-.496.286l.736 1.275.005.006q.018.03.042.054l.007.006q.022.02.046.035l.019.01q.021.013.044.019l.02.006a.3.3 0 0 0 .062.008h1.484l.033-.005.024-.004.029-.008.023-.008q.014-.007.027-.014l.021-.012.023-.019.02-.018q.007-.01.016-.02l.018-.026.006-.008.653-1.132h1.142l.571.99-.653 1.132a.286.286 0 1 0 .495.286l.736-1.276.004-.008q.008-.014.013-.028l.009-.024q.004-.013.006-.028l.005-.027v-.055a.4.4 0 0 0-.033-.107l-.004-.008-.653-1.132.653-1.132.004-.008.022-.053q.004-.014.006-.027l.005-.028v-.054l-.005-.028-.006-.027-.009-.024-.013-.028-.004-.008-.653-1.132.57-.99h1.312a.3.3 0 0 0 .062-.008l.02-.006a.2.2 0 0 0 .044-.018l.018-.01a.3.3 0 0 0 .047-.036l.006-.006a.3.3 0 0 0 .042-.054l.005-.006.653-1.132h1.142l.572.99-.572.988h-1.307a.286.286 0 1 0 0 .572h1.473a.29.29 0 0 0 .247-.143l.737-1.275.003-.008q.008-.014.013-.028l.01-.025.006-.026.004-.028v-.055q-.001-.014-.004-.027l-.007-.027a.3.3 0 0 0-.022-.053l-.003-.008-.654-1.131.571-.99h1.142l.654 1.133a.29.29 0 0 0 .247.143h1.308l.57.989-.653 1.132a.29.29 0 0 0 0 .286l.654 1.132-.654 1.132a.29.29 0 0 0 0 .286l.654 1.132-.654 1.132a.29.29 0 0 0 0 .286l.654 1.133-.571.989h-1.142l-.571-.99.653-1.132a.29.29 0 0 0 0-.286l-.653-1.132.653-1.132a.29.29 0 0 0 0-.286l-.653-1.132.653-1.132a.29.29 0 0 0 0-.286l-.736-1.275a.286.286 0 1 0-.495.286l.653 1.132-.57.989h-1.308a.29.29 0 0 0-.248.143l-.654 1.132H51.4l-.653-1.132a.286.286 0 0 0-.496.286l.736 1.275a.29.29 0 0 0 .248.143h1.473a.29.29 0 0 0 .247-.143l.654-1.132h1.142l.571.989-.653 1.132-.004.008q-.008.015-.013.029l-.01.024-.005.027-.005.028v.054l.005.028.006.027.009.024.013.029.004.008.653 1.132-.653 1.132-.004.008q-.008.014-.013.028l-.01.025-.005.026-.005.028v.055q.001.014.005.027.002.014.006.027a.3.3 0 0 0 .022.053l.004.008.653 1.132-.653 1.132a.286.286 0 1 0 .495.286l.654-1.132h1.307a.29.29 0 0 0 .248-.143l.736-1.275.004-.008q.007-.013.012-.029l.01-.024.006-.027q.004-.014.004-.027l.001-.028v-.027l-.005-.027-.006-.028a.3.3 0 0 0-.022-.052l-.004-.008-.654-1.132.654-1.133.004-.008q.007-.014.012-.028l.01-.024.006-.028.004-.027v-.055q-.001-.013-.004-.027l-.007-.027a.3.3 0 0 0-.021-.053l-.004-.008-.654-1.132.571-.99h1.311a.3.3 0 0 0 .063-.008l.019-.006a.2.2 0 0 0 .044-.018l.019-.01a.3.3 0 0 0 .046-.036l.007-.006a.3.3 0 0 0 .042-.054l.004-.006.736-1.275a.286.286 0 1 0-.495-.286l-.654 1.132h-1.142l-.57-.989.653-1.132.003-.008q.008-.013.013-.028l.01-.025.006-.027.004-.027.001-.027v-.028l-.005-.027-.006-.027a.3.3 0 0 0-.023-.053l-.003-.008-.736-1.275a.29.29 0 0 0-.248-.143h-1.307l-.571-.99.57-.988h1.308a.29.29 0 0 0 .248-.143l.653-1.133h1.142l.654 1.133a.29.29 0 0 0 .248.143h1.472a.29.29 0 0 0 .248-.143l.653-1.133h1.142l.654 1.133a.29.29 0 0 0 .248.143h1.307l.571.989-.653 1.132a.29.29 0 0 0 0 .286l.653 1.132-.653 1.132a.286.286 0 1 0 .495.286l.736-1.275.004-.008.013-.028.009-.025q.004-.013.006-.027l.005-.027v-.055l-.005-.027-.006-.028-.01-.024-.012-.028-.004-.008-.653-1.132.57-.99h1.143l.653 1.133a.29.29 0 0 0 .248.143h1.307l.571.989-.653 1.132a.286.286 0 1 0 .495.286l.737-1.275.003-.008q.007-.013.013-.028l.01-.025.005-.027.005-.027v-.055l-.005-.027q-.002-.014-.006-.027l-.009-.025-.013-.028-.003-.008-.654-1.132.571-.99h1.307a.286.286 0 1 0 0-.571h-1.472a.29.29 0 0 0-.248.143l-.654 1.132h-1.142l-.57-.99.653-1.132a.286.286 0 1 0-.496-.286l-.653 1.133H66.86l-.571-.99.653-1.132a.286.286 0 1 0-.495-.286l-.654 1.132h-1.142l-.571-.989.654-1.132a.286.286 0 1 0-.496-.286l-.654 1.132h-1.142l-.653-1.132a.286.286 0 1 0-.496.287l.654 1.132-.571.989h-1.142l-.571-.99.653-1.131a.286.286 0 1 0-.495-.287l-.654 1.133h-1.142l-.653-1.133a.286.286 0 1 0-.496.286l.654 1.133-.571.989h-1.143l-.57-.99.653-1.132a.29.29 0 0 0 0-.286l-.654-1.132.571-.989h1.143l.653 1.132a.286.286 0 1 0 .496-.286l-.654-1.132.654-1.132.003-.008q.008-.014.013-.029l.01-.024.006-.027.004-.027v-.055q-.001-.014-.004-.027a.2.2 0 0 0-.016-.052l-.013-.028-.003-.008-.654-1.133.654-1.132.003-.008.023-.052.006-.027.004-.028v-.054q-.001-.015-.004-.028l-.006-.027a.3.3 0 0 0-.023-.052l-.003-.008-.736-1.276a.29.29 0 0 0-.248-.143h-1.308l-.653-1.132a.29.29 0 0 0-.248-.143h-1.307l-.571-.989.57-.989h1.143l.654 1.132a.29.29 0 0 0 .247.143h1.308l.653 1.132.005.006a.3.3 0 0 0 .041.055l.007.006q.021.02.047.035l.018.01q.022.01.045.018l.019.006a.3.3 0 0 0 .062.008l.004.001h1.307l.571.989-.653 1.132-.004.008-.022.053q-.004.013-.006.027l-.005.027v.055l.005.027q.002.014.006.027l.01.025q.004.014.012.028l.004.008.653 1.132-.653 1.132-.004.008q-.008.014-.013.029l-.01.024-.005.027-.005.028v.054l.005.028a.2.2 0 0 0 .015.051l.013.029.004.008.653 1.132-.653 1.132a.286.286 0 1 0 .495.286l.654-1.132h1.307a.29.29 0 0 0 .248-.143l.736-1.275.004-.008q.007-.013.013-.028l.009-.025.006-.027.004-.027.001-.028v-.027l-.005-.027-.006-.027a.3.3 0 0 0-.022-.053l-.004-.008-.736-1.275a.286.286 0 1 0-.496.286l.654 1.132-.571.989h-1.142l-.571-.99.653-1.131a.29.29 0 0 0 0-.286l-.653-1.133.57-.989h1.143l.653 1.133.005.006q.018.03.042.054l.007.006q.022.02.046.035l.018.01a.2.2 0 0 0 .045.019l.019.006a.3.3 0 0 0 .062.008h1.311l.571.99-.653 1.131a.286.286 0 1 0 .495.286l.654-1.132h1.142l.654 1.132a.286.286 0 1 0 .495-.286l-.654-1.132.572-.989h1.142l.653 1.132a.286.286 0 1 0 .496-.286l-.736-1.275a.29.29 0 0 0-.248-.143h-1.473a.29.29 0 0 0-.247.143l-.654 1.132h-1.142l-.654-1.132a.29.29 0 0 0-.247-.143h-1.308l-.57-.99.57-.988h1.142l.654 1.132a.29.29 0 0 0 .248.143h1.472a.29.29 0 0 0 .248-.143l.654-1.132h1.142l.653 1.132a.29.29 0 0 0 .248.143h1.307l.571.989-.653 1.132a.29.29 0 0 0 0 .286l.653 1.132-.57.99h-1.143l-.653-1.133a.286.286 0 1 0-.496.286l.654 1.132-.571.99H66.86l-.654-1.133a.29.29 0 0 0-.248-.143h-1.472a.29.29 0 0 0-.248.143l-.654 1.133h-1.307a.286.286 0 1 0 0 .572h1.473l.008-.001.033-.004.024-.004.029-.008.023-.008.026-.015.022-.012.022-.019.037-.039.018-.025q.002-.002.005-.008l.654-1.132h1.142l.571.99-.654 1.132a.286.286 0 1 0 .496.286l.654-1.132h1.142l.57.989-.653 1.132a.286.286 0 1 0 .496.286l.653-1.132h1.142l.571.989-.653 1.132a.286.286 0 1 0 .495.286l.654-1.132h1.142l.653 1.132a.286.286 0 1 0 .496-.286l-.736-1.276a.29.29 0 0 0-.248-.143h-1.307l-.654-1.132a.29.29 0 0 0-.247-.143h-1.308l-.57-.99.57-.988h1.308a.29.29 0 0 0 .247-.143l.654-1.133h1.142l.654 1.133a.286.286 0 1 0 .495-.287l-.736-1.275a.29.29 0 0 0-.248-.143h-1.307l-.571-.989.653-1.132.004-.008.022-.053q.004-.013.006-.027l.005-.027v-.055l-.005-.027q-.002-.014-.006-.027l-.009-.025-.013-.028-.004-.008-.736-1.275a.29.29 0 0 0-.247-.143h-1.308l-.57-.99.57-.988h1.308a.29.29 0 0 0 .247-.143l.736-1.275.004-.008q.007-.013.013-.029l.01-.024.005-.027.005-.028v-.054l-.005-.028-.006-.027-.009-.024-.013-.028-.004-.008-.736-1.275a.286.286 0 0 0-.495.286l.653 1.132-.57.989h-1.308a.29.29 0 0 0-.248.143l-.653 1.132h-1.308a.29.29 0 0 0-.247.143l-.654 1.132h-1.142l-.654-1.132a.29.29 0 0 0-.247-.143h-1.473a.29.29 0 0 0-.248.143l-.653 1.132h-1.142l-.654-1.132a.29.29 0 0 0-.248-.143h-1.307l-.653-1.132a.29.29 0 0 0-.248-.143h-1.308l-.653-1.132a.29.29 0 0 0-.248-.143h-1.307l-.654-1.132a.286.286 0 0 0-.495.286l.653 1.132-.653 1.132a.29.29 0 0 0 0 .286l.653 1.132-.57.99h-1.308a.29.29 0 0 0-.248.142l-.653 1.132h-1.308a.29.29 0 0 0-.247.143l-.654 1.132h-1.307a.29.29 0 0 0-.248.143l-.654 1.133h-1.307a.29.29 0 0 0-.248.143l-.653 1.132H42.4a.286.286 0 1 0 0 .572h1.307l.57.989-.653 1.132a.29.29 0 0 0 0 .286l.654 1.132-.654 1.132a.286.286 0 1 0 .496.286l.736-1.275.004-.008.013-.028.009-.025.006-.027.005-.027v-.055l-.005-.027-.006-.027-.01-.025-.012-.028-.004-.008-.654-1.132.571-.99h1.311a.3.3 0 0 0 .063-.008l.019-.006a.2.2 0 0 0 .044-.018l.019-.01a.3.3 0 0 0 .046-.036l.007-.006a.3.3 0 0 0 .042-.054l.005-.006.736-1.275a.286.286 0 1 0-.496-.286l-.653 1.132h-1.142l-.572-.989.572-.989h1.31a.3.3 0 0 0 .063-.008l.019-.006a.2.2 0 0 0 .044-.019l.019-.01a.3.3 0 0 0 .046-.035l.007-.006a.3.3 0 0 0 .042-.054l.005-.006.653-1.133h1.308a.29.29 0 0 0 .247-.142l.654-1.133h1.142l.571.99-.654 1.132-.003.008q-.008.014-.013.028l-.01.024-.005.028-.005.027v.055q.001.014.005.027l.006.027a.3.3 0 0 0 .022.053l.003.008.654 1.132-.654 1.132a.286.286 0 0 0 .496.286l.654-1.132h1.142l.57.99-.653 1.132a.29.29 0 0 0 0 .286l.654 1.132-.571.989H51.4l-.572-.99.654-1.131a.286.286 0 1 0-.495-.286l-.654 1.132h-1.142l-.571-.99.653-1.131.004-.008.022-.053q.004-.014.006-.027l.005-.027v-.055l-.005-.028-.006-.027a.3.3 0 0 0-.022-.052l-.004-.008-.653-1.132.653-1.132a.286.286 0 0 0-.495-.287l-.736 1.276a.29.29 0 0 0 0 .286l.653 1.132-.57.989h-1.308a.286.286 0 1 0 0 .572h1.307l.571.989-.653 1.132a.29.29 0 0 0 0 .286l.653 1.132-.57.99h-1.308a.29.29 0 0 0-.248.143l-.653 1.132h-1.307a.29.29 0 0 0-.248.143l-.654 1.132h-1.142l-.654-1.132a.286.286 0 1 0-.495.286l.653 1.132-.57.989h-1.143l-.653-1.132a.29.29 0 0 0-.248-.143h-1.307l-.571-.99.653-1.131a.286.286 0 1 0-.495-.286l-.736 1.275-.004.008q-.008.013-.013.028l-.009.024q-.004.014-.006.027l-.005.028v.054l.005.028.006.027.009.024.013.029.004.008.736 1.275a.29.29 0 0 0 .248.143h1.307l.653 1.132.005.006a.3.3 0 0 0 .042.054l.006.006q.022.021.047.035l.018.01q.022.013.045.019l.019.006a.3.3 0 0 0 .062.008h1.311l.571.99-.57.988h-1.143l-.653-1.132a.29.29 0 0 0-.248-.143h-1.307l-.654-1.132a.29.29 0 0 0-.248-.143H35.94l-.654-1.132a.29.29 0 0 0-.247-.143H33.73l-.57-.99.653-1.131.004-.008.022-.053.006-.027.004-.028.001-.027v-.027l-.005-.028-.006-.027-.01-.024-.012-.028-.004-.008-.654-1.132.571-.99h1.308a.286.286 0 1 0 0-.572H33.73l-.57-.989.57-.989h1.308a.29.29 0 0 0 .247-.143l.654-1.132h1.142l.571.99-.571.988h-1.307a.286.286 0 1 0 0 .572h1.307l.571.99-.571.989h-1.307a.29.29 0 0 0-.248.143l-.736 1.275a.29.29 0 0 0 0 .286l.736 1.275a.286.286 0 1 0 .496-.286l-.654-1.132.571-.99h1.311a.3.3 0 0 0 .062-.008l.02-.006a.2.2 0 0 0 .044-.018q.01-.005.018-.01a.3.3 0 0 0 .047-.036l.007-.006a.3.3 0 0 0 .041-.054l.005-.006.654-1.132h1.142l.57.99-.653 1.132a.29.29 0 0 0 0 .286l.736 1.275a.286.286 0 1 0 .496-.286l-.654-1.132.571-.99h1.142l.654 1.133a.29.29 0 0 0 .248.143h1.472a.29.29 0 0 0 .248-.143l.653-1.133h1.311a.3.3 0 0 0 .063-.008l.019-.006a.2.2 0 0 0 .044-.018l.019-.01a.3.3 0 0 0 .046-.036l.007-.006a.3.3 0 0 0 .042-.054l.004-.006.737-1.275a.29.29 0 0 0 0-.286l-.737-1.275a.286.286 0 1 0-.495.286l.653 1.132-.57.99h-1.308a.29.29 0 0 0-.248.142l-.653 1.132h-1.142l-.571-.989.653-1.132a.29.29 0 0 0 0-.286l-.653-1.132.653-1.132a.29.29 0 0 0 0-.286l-.736-1.275a.29.29 0 0 0-.248-.143h-1.307l-.57-.99.57-.989h1.311a.4.4 0 0 0 .063-.008l.018-.006a.2.2 0 0 0 .045-.018l.019-.01a.3.3 0 0 0 .046-.036l.007-.006a.3.3 0 0 0 .042-.054q.001-.003.004-.006l.736-1.275a.29.29 0 0 0 0-.286l-.736-1.275a.29.29 0 0 0-.248-.143h-1.472a.29.29 0 0 0-.248.143l-.653 1.132h-1.308a.29.29 0 0 0-.247.143l-.654 1.132h-1.307a.29.29 0 0 0-.248.143l-.736 1.275a.286.286 0 1 0 .495.286l.654-1.132h1.316l.032-.005q.013 0 .025-.004l.028-.008.024-.01.025-.014.023-.015.022-.018.02-.019.017-.02.018-.025.005-.008.653-1.132h1.308a.29.29 0 0 0 .247-.143l.654-1.133h1.142l.571.99-.57.989H40.19a.29.29 0 0 0-.248.143l-.736 1.275a.29.29 0 0 0 0 .286l.654 1.132-.654 1.132a.29.29 0 0 0 0 .286l.736 1.275a.286.286 0 1 0 .496-.286l-.654-1.132.571-.989h1.142l.571.99-.653 1.131-.004.008q-.008.013-.013.029l-.01.024-.005.027-.005.028v.054q.001.015.005.028l.006.027.009.024.013.028.004.008.653 1.133-.57.989h-1.143l-.654-1.132a.29.29 0 0 0-.247-.143h-1.308l-.57-.99.653-1.132a.29.29 0 0 0 0-.286l-.654-1.132.654-1.132a.286.286 0 1 0-.496-.286l-.653 1.132h-1.307a.29.29 0 0 0-.248.143l-.654 1.132H33.73l-.57-.989.653-1.132.003-.008q.008-.014.013-.028l.01-.025.006-.027.004-.027v-.055q-.001-.014-.004-.027l-.007-.027-.009-.025-.013-.028-.003-.008-.654-1.132.571-.99h1.307a.286.286 0 1 0 0-.571H33.73l-.57-.99.57-.988h1.142l.654 1.132q.002.002.005.008l.018.025.017.02.02.019.022.018q.01.008.023.015t.024.012l.026.01.027.008.026.004.03.002.01.001h1.475a.3.3 0 0 0 .063-.008l.019-.006a.2.2 0 0 0 .045-.019l.018-.01a.3.3 0 0 0 .046-.035l.007-.006a.3.3 0 0 0 .042-.054l.005-.006.653-1.132h1.307a.286.286 0 1 0 0-.572h-1.472a.29.29 0 0 0-.248.143l-.653 1.132h-1.143l-.653-1.132a.29.29 0 0 0-.248-.143H33.73l-.571-.99.57-.988h1.308a.29.29 0 0 0 .248-.143l.653-1.132h1.308a.286.286 0 1 0 0-.572h-1.473a.29.29 0 0 0-.247.143l-.654 1.132H33.73l-.571-.99.653-1.131.004-.008q.008-.014.013-.03l.01-.023.005-.028.005-.027v-.055l-.005-.027-.006-.027-.009-.024-.013-.029-.004-.008-.653-1.132.57-.99h1.308a.29.29 0 0 0 .248-.142l.736-1.275a.286.286 0 1 0-.495-.286l-.654 1.132H33.73l-.571-.99.57-.988h1.308a.29.29 0 0 0 .248-.143l.653-1.133h1.143l.57.99-.653 1.132-.004.008q-.007.013-.013.028l-.009.024-.006.027-.005.028v.054l.005.028.006.027.01.024q.005.014.012.029l.004.008.736 1.275a.286.286 0 1 0 .496-.286l-.654-1.133.654-1.132a.29.29 0 0 0 0-.286l-.654-1.132.571-.989h1.307a.29.29 0 0 0 .248-.143l.654-1.132h1.142l.57.99-.653 1.131a.286.286 0 1 0 .496.286l.736-1.275a.29.29 0 0 0 0-.286l-.654-1.132.571-.99h1.308a.29.29 0 0 0 .247-.142l.654-1.132h1.142l.571.989-.571.989h-1.307a.29.29 0 0 0-.248.143l-.736 1.275a.29.29 0 0 0 0 .286l.653 1.132-.653 1.132a.29.29 0 0 0 0 .286l.736 1.275.005.006a.3.3 0 0 0 .041.055l.007.006q.022.018.047.035l.018.01q.023.01.045.018l.019.006a.3.3 0 0 0 .062.008l.004.001h1.307l.654 1.132a.29.29 0 0 0 .248.143h1.472a.29.29 0 0 0 .248-.143l.736-1.275a.286.286 0 1 0-.496-.286l-.653 1.132h-1.142l-.654-1.132a.29.29 0 0 0-.248-.143h-1.307l-.571-.99.654-1.131.003-.008q.008-.013.013-.029l.01-.024.006-.027.004-.028v-.054q-.001-.013-.004-.028l-.007-.027a.3.3 0 0 0-.022-.053l-.003-.008-.654-1.132.571-.989h1.311a.4.4 0 0 0 .063-.008l.018-.006a.2.2 0 0 0 .045-.019l.019-.01a.3.3 0 0 0 .046-.035l.007-.006a.3.3 0 0 0 .042-.054q.001-.003.004-.006l.736-1.276a.29.29 0 0 0 0-.286l-.653-1.132.57-.989h1.143l.653 1.132.005.006q.017.03.042.055l.007.006q.022.018.046.035l.018.01q.023.01.045.018l.019.006a.3.3 0 0 0 .063.008h1.31l.654 1.133a.29.29 0 0 0 .248.143h1.472a.29.29 0 0 0 .248-.143l.736-1.275.004-.008q.007-.013.013-.029l.009-.024q.004-.013.006-.027l.005-.027v-.055l-.005-.027q-.002-.013-.006-.028l-.01-.024-.012-.028-.004-.008-.736-1.275a.286.286 0 1 0-.496.286l.654 1.132-.57.989h-1.143l-.654-1.132a.29.29 0 0 0-.247-.143H49.19l-.57-.99.57-.988h1.142l.654 1.132a.286.286 0 1 0 .496-.286l-.654-1.133.571-.989h1.142l.654 1.132a.286.286 0 1 0 .495-.286l-.653-1.132.653-1.132a.286.286 0 1 0-.495-.286l-.654 1.132h-1.307a.29.29 0 0 0-.248.143l-.654 1.132h-1.307a.29.29 0 0 0-.248.143l-.653 1.132h-1.307a.29.29 0 0 0-.248.143l-.654 1.133h-1.307a.29.29 0 0 0-.248.143l-.653 1.132h-1.308a.29.29 0 0 0-.247.143l-.654 1.132H40.19a.29.29 0 0 0-.248.143l-.653 1.132h-1.308a.29.29 0 0 0-.247.143l-.654 1.132h-1.307a.29.29 0 0 0-.248.143l-.654 1.132h-1.307a.29.29 0 0 0-.248.143l-.736 1.275a.29.29 0 0 0 0 .286l.654 1.133-.654 1.132a.29.29 0 0 0 0 .286l.654 1.132-.654 1.132a.29.29 0 0 0 0 .286l.654 1.132-.654 1.132a.29.29 0 0 0 0 .286l.654 1.132-.654 1.133a.29.29 0 0 0 0 .286l.654 1.132-.654 1.132a.29.29 0 0 0 0 .286l.654 1.132-.654 1.132a.29.29 0 0 0 0 .286l.654 1.132-.654 1.132a.29.29 0 0 0 0 .287l.654 1.132-.654 1.132a.29.29 0 0 0 0 .286l.654 1.132-.654 1.132a.29.29 0 0 0 0 .286l.736 1.275.005.006a.3.3 0 0 0 .042.054l.006.006q.022.021.047.036l.018.01q.022.012.045.018l.019.006a.3.3 0 0 0 .062.008h1.311l.654 1.133.004.006q.018.03.042.054l.007.006q.021.02.047.035l.018.01q.022.012.045.019l.019.006a.3.3 0 0 0 .062.008h1.311l.654 1.132a.29.29 0 0 0 .247.143h1.308l.653 1.132.005.006q.017.03.042.055l.007.006q.022.02.046.035l.018.01q.023.01.045.019l.019.006a.3.3 0 0 0 .062.008h1.311l.654 1.132a.29.29 0 0 0 .248.143h1.307l.654 1.132q.001.003.004.006a.3.3 0 0 0 .042.054l.007.006q.022.021.046.036l.018.01q.023.01.045.018l.019.006a.3.3 0 0 0 .063.008h1.31l.654 1.133a.29.29 0 0 0 .248.143h1.307l.654 1.132q.001.003.004.006a.3.3 0 0 0 .042.054l.007.006q.022.019.046.035l.019.01q.021.012.044.019l.02.006a.3.3 0 0 0 .062.008h1.311l.653 1.132a.29.29 0 0 0 .248.143h1.307l.654 1.133.005.006a.3.3 0 0 0 .041.054l.007.006q.021.02.047.035l.018.01q.022.012.045.019l.018.006a.3.3 0 0 0 .063.008h1.48a.3.3 0 0 0 .062-.008l.02-.006a.2.2 0 0 0 .044-.019l.018-.01a.3.3 0 0 0 .047-.035l.007-.006a.3.3 0 0 0 .041-.054l.005-.006.653-1.133h1.308a.29.29 0 0 0 .247-.143l.654-1.132h1.311a.3.3 0 0 0 .063-.008l.018-.006a.2.2 0 0 0 .045-.018l.019-.01a.3.3 0 0 0 .046-.036l.007-.006a.3.3 0 0 0 .041-.054l.005-.006.654-1.132h1.307a.29.29 0 0 0 .248-.143l.653-1.132h1.311a.3.3 0 0 0 .063-.009l.019-.006a.2.2 0 0 0 .044-.018l.019-.01a.3.3 0 0 0 .046-.036l.007-.006a.3.3 0 0 0 .042-.054l.004-.006.654-1.132h1.307a.29.29 0 0 0 .248-.143l.653-1.132h1.311a.3.3 0 0 0 .063-.008l.019-.006a.2.2 0 0 0 .044-.019l.019-.01a.3.3 0 0 0 .046-.035l.007-.006a.3.3 0 0 0 .042-.055l.004-.006.654-1.132h1.307a.29.29 0 0 0 .248-.143l.654-1.132h1.31a.4.4 0 0 0 .063-.008l.019-.006a.2.2 0 0 0 .045-.019l.018-.01a.3.3 0 0 0 .046-.035l.007-.006a.3.3 0 0 0 .042-.054l.005-.006.653-1.132h1.311a.3.3 0 0 0 .063-.009l.019-.006a.2.2 0 0 0 .044-.018l.019-.01a.3.3 0 0 0 .046-.036l.007-.006a.3.3 0 0 0 .042-.054q.001-.003.004-.006l.736-1.275a.29.29 0 0 0 0-.286l-.653-1.132.653-1.132a.29.29 0 0 0 0-.286l-.653-1.132.653-1.132a.29.29 0 0 0 0-.287l-.653-1.132.653-1.132a.29.29 0 0 0 0-.286l-.653-1.132.653-1.132a.29.29 0 0 0 0-.286l-.653-1.132.653-1.132a.29.29 0 0 0 0-.286l-.653-1.133.653-1.132a.29.29 0 0 0 0-.286l-.653-1.132.654-1.132a.29.29 0 0 0 0-.286l-.654-1.132.654-1.132a.29.29 0 0 0 0-.286z" style="mix-blend-mode:normal;stroke-width:.543;stroke-miterlimit:4;stroke-dasharray:none;fill:#fff;fill-opacity:1" transform="translate(-32.543 -121.665)"/></svg>